<?xml version="1.0" encoding="iso-8859-1"?>
<!-- Generator: Adobe Illustrator 27.0.0, SVG Export Plug-In . SVG Version: 6.00 Build 0)  -->
<svg version="1.1" id="Layer_1"
    xmlns="http://www.w3.org/2000/svg"
    xmlns:xlink="http://www.w3.org/1999/xlink" x="0px" y="0px" viewBox="0 0 256 256" style="enable-background:new 0 0 256 256;" xml:space="preserve">
    <path style="fill:#14532d;" d="M128.5,4C59.729,4,3.985,59.517,3.985,128S59.729,252,128.5,252s124.515-55.517,124.515-124
	S197.271,4,128.5,4z M44.087,66.556c1.369,0,2.593,0.545,3.488,1.441c0.885,0.895,1.441,2.13,1.441,3.488v20.632
	c0,3.042-2.761,5.452-5.928,4.831c-2.326-0.456-3.92-2.633-3.92-5.003l0-20.46C39.169,68.758,41.371,66.556,44.087,66.556z
	 M32.541,129.039l20.2-4.26c2.655-0.556,5.269,1.142,5.835,3.807c0.556,2.665-1.142,5.279-3.807,5.835l-20.19,4.26
	c-2.665,0.566-5.279-1.142-5.835-3.807c-0.072-0.34-0.113-0.689-0.113-1.019C28.631,131.581,30.226,129.533,32.541,129.039z
	 M112.107,25.723c0,0.123,0,0.257-0.01,0.381l-1.513,20.581c-0.196,2.717-2.562,4.754-5.269,4.548
	c-2.717-0.196-4.754-2.562-4.559-5.269l1.513-20.581c0.206-2.717,2.562-4.754,5.279-4.559
	C110.142,21.02,112.107,23.171,112.107,25.723z M94.881,94.052c-2.161,1.657-5.248,1.255-6.905-0.906L75.412,76.774
	c-1.657-2.161-1.245-5.258,0.916-6.915c0.895-0.69,1.945-1.019,2.995-1.019c1.472,0,2.943,0.669,3.91,1.935l12.565,16.372
	C97.454,89.308,97.042,92.395,94.881,94.052z M69.556,148.807c0.916-1.585,2.573-2.459,4.271-2.459c0.834,0,1.688,0.216,2.459,0.659
	l17.875,10.311c2.356,1.369,3.159,4.384,1.801,6.74c-1.358,2.356-4.373,3.159-6.73,1.801l-17.864-10.321
	C69.011,154.179,68.198,151.164,69.556,148.807z M96.435,128c0-17.453,14.314-31.592,31.983-31.592
	c17.658,0,31.983,14.139,31.983,31.592c0,17.453-14.324,31.592-31.983,31.592C110.749,159.592,96.435,145.453,96.435,128z
	 M140.849,69.458c-2.696-0.34-4.61-2.809-4.26-5.516c0.309-2.49,2.439-4.301,4.878-4.301c0.206,0,0.422,0.01,0.628,0.041
	l20.468,2.614c2.706,0.34,4.61,2.809,4.271,5.505c-0.35,2.696-2.809,4.61-5.516,4.271L140.849,69.458z M165.402,54.228
	c-2.192-1.626-2.645-4.713-1.019-6.895l12.307-16.557c1.626-2.192,4.713-2.645,6.895-1.019c1.297,0.967,1.986,2.459,1.986,3.962
	c0,1.019-0.319,2.048-0.967,2.933l-12.307,16.557C170.67,55.391,167.583,55.854,165.402,54.228z M169.003,151.709l13.553-15.559
	c1.791-2.048,4.898-2.264,6.956-0.473c1.111,0.978,1.688,2.346,1.688,3.715c0,1.142-0.401,2.295-1.214,3.231l-13.553,15.559
	c-1.791,2.058-4.909,2.264-6.956,0.484C167.429,156.875,167.213,153.767,169.003,151.709z M180.405,109.704
	c-2.593,0.823-5.361-0.617-6.185-3.211c-0.154-0.494-0.237-0.998-0.237-1.492c0-2.089,1.348-4.024,3.447-4.692l19.675-6.226
	c2.593-0.823,5.361,0.617,6.185,3.211c0.813,2.593-0.617,5.361-3.211,6.185L180.405,109.704z M209.321,143.302
	c0.885-0.689,1.945-1.019,2.984-1.019c1.482,0,2.953,0.669,3.921,1.935l12.452,16.239c1.44,1.878,1.501,4.569-0.063,6.345
	c-2.132,2.422-5.788,2.211-7.646-0.212l-12.565-16.372C206.749,148.056,207.16,144.959,209.321,143.302z M212.923,95.359
	l1.513-20.581c0.206-2.717,2.562-4.754,5.279-4.559c2.593,0.196,4.559,2.346,4.559,4.898c0,0.123,0,0.257-0.01,0.381l-1.513,20.581
	c-0.196,2.717-2.562,4.754-5.269,4.548C214.765,100.432,212.727,98.065,212.923,95.359z M128.5,244.797
	c-59.252,0-108.328-43.045-116.91-99.21C11.991,146.687,21,178,46.176,183.054c0,0,14.824,1.946,25.726-3.087
	c0,0,6.174-3.087,13.378-3.087c0,0,7.203,0,12.349,3.087c0,0,5.145,3.087,20.581,15.436c0,0,5.79,5.598,16.465,6.174
	c0,0,11.32,1.029,21.61-9.261c0,0,14.407-13.378,15.436-14.407c1.029-1.029,17.28-14.909,30.871,1.029c0,0,7.203,9.261,17.494,9.261
	c0,0,9.117,0.906,15.343-10.28C216.483,217.455,175.723,244.797,128.5,244.797z"/>
</svg>
