<?xml version="1.0" encoding="UTF-8"?>
<svg id="Layer_1" data-name="Layer 1" xmlns="http://www.w3.org/2000/svg" viewBox="0 0 512 512">
  <defs>
    <style>
      .cls-1 {
        fill: blue;
      }
    </style>
  </defs>
  <g>
    <path class="cls-1" d="M377.5,170.2c-.01,6.07-4.94,10.98-11,10.98h-.02l-74.13-.12-64.99-.11-74.88-.13c-6.07-.01-10.99-4.94-10.98-11.02,.01-6.06,4.94-10.98,11-10.98h.02l41.76,.07,37.49,.06,56.24,.1,37.5,.06,41.01,.07c6.07,.01,10.99,4.95,10.98,11.02Z"/>
    <g>
      <path class="cls-1" d="M260,5c-50.18,0-91,40.82-91,91,0,6.33,.65,12.52,1.89,18.5,1.6,7.74,4.19,15.11,7.63,22,4.11,8.25,9.44,15.79,15.76,22.39,9.19,9.6,20.46,17.2,33.08,22.06l64.99,.11c12.64-4.82,23.93-12.38,33.16-21.95,6.41-6.65,11.81-14.27,15.97-22.61,3.44-6.88,6.03-14.26,7.63-22,1.24-5.97,1.89-12.16,1.89-18.5,0-50.18-40.82-91-91-91Zm55.82,131.5c-7.09,9.76-16.67,17.59-27.81,22.55-8.56,3.83-18.04,5.95-28.01,5.95s-19.61-2.16-28.23-6.05c-11.04-4.97-20.55-12.76-27.6-22.45-4.77-6.55-8.42-13.98-10.65-22-1.64-5.89-2.52-12.09-2.52-18.5,0-38.05,30.95-69,69-69s69,30.95,69,69c0,6.41-.88,12.61-2.52,18.5-2.23,8.01-5.88,15.45-10.66,22Z"/>
      <path class="cls-1" d="M309.5,96c0,3.04-1.23,5.79-3.22,7.78-1.99,1.99-4.74,3.22-7.78,3.22h-27.5v26.5c0,1.04-.14,2.05-.42,3-1.3,4.62-5.54,8-10.58,8s-9.28-3.38-10.58-8c-.28-.95-.42-1.96-.42-3v-26.5h-26.5c-6.08,0-11-4.92-11-11,0-3.04,1.23-5.79,3.22-7.78,1.99-1.99,4.74-3.22,7.78-3.22h26.5v-27.5c0-6.08,4.92-11,11-11,3.04,0,5.79,1.23,7.78,3.22,1.99,1.99,3.22,4.74,3.22,7.78v27.5h27.5c6.08,0,11,4.92,11,11Z"/>
    </g>
  </g>
  <g>
    <path class="cls-1" d="M435.5,203h-18.5v-48.93c0-21.82-17.75-39.57-39.57-39.57h-28.32c-1.6,7.74-4.19,15.12-7.63,22h35.95c9.69,0,17.57,7.88,17.57,17.57v48.43H92c-18.2,0-33-14.8-33-33s14.8-33,33-33h86.52c-3.44-6.89-6.03-14.26-7.63-22H92c-30.33,0-55,24.67-55,55V437.29c0,39.54,32.17,71.71,71.71,71.71H435.5c21.78,0,39.5-17.72,39.5-39.5V242.5c0-21.78-17.72-39.5-39.5-39.5Zm17.5,192h-119c-21.5,0-39-17.5-39-39s17.5-39,39-39h119v78Zm0-100h-119c-33.64,0-61,27.36-61,61s27.36,61,61,61h119v52.5c0,9.65-7.85,17.5-17.5,17.5H108.71c-27.41,0-49.71-22.3-49.71-49.71V213.48c9.2,6.91,20.63,11.02,33,11.02h16.71v.5H435.5c9.65,0,17.5,7.85,17.5,17.5v52.5Z"/>
    <rect class="cls-1" x="321" y="347" width="20" height="20" rx="10" ry="10"/>
  </g>
</svg>