<?xml version="1.0" encoding="UTF-8"?>
<svg id="Layer_1" data-name="Layer 1" xmlns="http://www.w3.org/2000/svg" viewBox="0 0 512 512">
  <defs>
    <style>
      .cls-1 {
        fill: green;
      }
    </style>
  </defs>
  <path class="cls-1" d="M437.5,308.5h-66.05L252.87,103.12l-30.65,17.7-75.08-31.79c-3.13-4.81-11-15.22-21.87-17.76-5.94-1.38-11.9-.22-17.25,3.37l-58.75,33.85c-1.78,1.01-19.35,11.6-18.27,34.19l-.05,33.72c-.22,2.6-.2,10.43,6.08,20.89l23.98,40.96c.85,1.48,7.23,11.89,19.82,14.17,7.36,1.33,14.98-.43,22.74-5.24l.63,.62c.73,.74,7.45,7.19,17.3,6.98,4.29-.08,10.61-1.51,17.01-7.66,1.78,1.74,7.47,6.58,15.79,6.91,6.63,.27,13-2.32,18.92-7.69l10.44,16.98,.77,.71c.89,.81,1.95,1.66,3.16,2.5l24.23,41.97H80.5L5,435l.5,13.5H509.5v-15.56l-72-124.44ZM229.05,144.42c2.85,6.52,9.37,11.08,16.95,11.08,3.89,0,7.49-1.2,10.47-3.24l77.65,134.5c-5.73,3.15-9.62,9.24-9.62,16.24,0,1.92,.3,3.76,.83,5.5,.62,1.99,1.57,3.83,2.78,5.47l-25.17,14.53-24.07,13.9c-2.89-6.43-9.36-10.9-16.87-10.9-3.9,0-7.52,1.21-10.5,3.27l-3.62-6.27-11.54-20-21.82-37.79c1.09-.4,2.18-.89,3.28-1.47,.88-.4,1.83-.91,2.8-1.54,7.12,12.14,20.31,20.3,35.4,20.3,22.64,0,41-18.36,41-41s-18.36-41-41-41c-12.79,0-24.22,5.86-31.74,15.05l-31.9-55.45,36.69-21.18Zm-17.56,111.21l-.55,.27c-1.41,.76-2.83,1.17-4.2,1.33h-.01c-5.21,.6-9.81-2.43-11.49-3.71l-28.94-47.09c-2.17-3.52-6.76-4.64-10.3-2.52l-.07,.05c-1.23,.73-2.17,1.76-2.78,2.93-1.18,2.23-1.21,5.01,.16,7.34l11.5,19.58-1.11,.93-.3,.26c-6.72,6.24-11.48,4.06-13.96,1.81l-18.15-30.24c-1.41-2.35-3.91-3.66-6.47-3.66-1.31,0-2.63,.34-3.84,1.06-3.57,2.12-4.75,6.72-2.65,10.29l11.77,20.04-1.1,1.1c-2.62,2.83-5.21,4.3-7.68,4.38-2.7,.1-5.03-1.42-6.02-2.17l-17-28.08c-1.42-2.34-3.9-3.63-6.45-3.63-1.32,0-2.66,.34-3.87,1.07-3.56,2.13-4.72,6.74-2.6,10.31l10.2,17.21c-4.41,2.72-8.42,3.79-11.97,3.19-3.03-.52-5.43-2.23-7.06-3.82-1.64-1.59-2.52-3.05-2.52-3.05l-24.1-41.17c-3.97-6.62-4.06-11.03-4.03-11.87l.05-.22,.05-35.24v-.2c-.74-13.87,10.2-20.3,10.61-20.53l59.13-34.08,.51-.32c2.5-1.72,4.31-1.6,5.6-1.3,5.96,1.37,11.97,9.91,13.61,12.8l1.25,2.23,69.24,29.3,1.6,.68-19.31,12.49-3.47-.94-6.88-1.88c-7.17-1.95-13.18,5.29-10.37,11.83,.14,.32,.3,.65,.49,.97l11.36,19.74,36.83,64.01,1.37,2.38c1.85,6.56,.04,10.71-2.17,13.2-1.44,1.63-3.05,2.54-3.91,2.94ZM33,427l57.5-98.5H223.37l22.23,38.5h-66.6c-2.62,0-5,1.06-6.72,2.78s-2.78,4.1-2.78,6.72c0,5.25,4.25,9.5,9.5,9.5h171c2.62,0,5-1.06,6.72-2.78,1.72-1.72,2.78-4.1,2.78-6.72,0-5.25-4.25-9.5-9.5-9.5h-64.63l66.68-38.5h74.45l57.5,98.5H33Z"/>
</svg>