<?xml version="1.0" encoding="UTF-8"?>
<svg id="Layer_1" data-name="Layer 1" xmlns="http://www.w3.org/2000/svg" viewBox="0 0 512 512">
  <defs>
    <style>
      .cls-1 {
        fill: orange;
      }
    </style>
  </defs>
  <path class="cls-1" d="M308.17,333.08c-4.79,0-8.67-3.88-8.67-8.67V185.55c0-4.79,3.88-8.67,8.67-8.67h23.93c-28.63-56.31-87.05-94.87-154.47-94.87C81.95,82,4.39,159.67,4.39,255.5s77.55,173.5,173.24,173.5c67.84,0,126.56-39.05,154.99-95.92h-24.46Zm-90.03-48.59c-2.88,21.63-16.61,29.82-18.16,30.69-.44,.24-4.89,2.69-12.13,4.54v19.95h-18.87v-17.91c-10.38-.34-22.62-3.14-35.63-11.04l10.47-22.2c8.17,4.96,18.85,6.64,25.16,7,9.6,.57,16.33-2.33,17.97-3.11,.19-.16,.51-.44,.9-.87,1.35-1.47,3.53-4.68,4.31-10.51,.41-3.06-1.98-5.85-4.31-7.79-1.39-1.16-2.78-2.02-3.53-2.46-5.87-1.87-10.94-3.81-15.34-5.74-17.32-7.67-23.89-15.43-26.21-19.17-6.27-9.12-12.11-30.09,8.47-48.37,5.39-4.78,11.48-7.59,17.74-9.05v-16.62h18.87v15.68c14.13,1.47,25.97,6.88,28.21,7.96l-8.29,23.87c-3.22-1.52-12.92-4.22-19.92-5.37-6.98-1.14-14.3-.95-18.87,2.83-.12,.08-.22,.18-.32,.27-5.99,5.32-5.55,9.11-5.41,10.35,.22,1.91,1.09,3.55,1.1,3.56l.75,1.1c.42,.46,1.56,1.62,3.88,3.23,3.37,2.34,9.21,5.61,18.87,9.02,1.7,.6,3.52,1.21,5.46,1.8l.87,.27,.82,.39c9.84,4.63,25.79,17.78,23.14,37.7Z"/>
  <path class="cls-1" d="M315.82,194.19v123.02c0,.48,.39,.86,.86,.86h104.37s7.46-.52,8.51,6.81v9.04l78.44-78.57-78.44-78.28v9.43s-1.05,7.34-10.48,7.34l-102.39-.52c-.48,0-.87,.39-.87,.86Z"/>
</svg>