<?xml version="1.0" encoding="UTF-8"?>
<svg id="Layer_1" data-name="Layer 1" xmlns="http://www.w3.org/2000/svg" viewBox="0 0 512 512">
  <defs>
    <style>
      .cls-1 {
        fill: orange;
      }
    </style>
  </defs>
  <g>
    <path class="cls-1" d="M269.02,97.95c-49.73,0-90.05,40.32-90.05,90.05s40.32,90.05,90.05,90.05,90.05-40.32,90.05-90.05-40.32-90.05-90.05-90.05Zm32.47,111.7c-2.21,16.58-12.74,22.87-13.93,23.54-.34,.18-3.75,2.07-9.3,3.48v15.3h-14.47v-13.73c-7.96-.26-17.35-2.42-27.32-8.46l8.02-17.03c6.26,3.81,14.46,5.09,19.3,5.37,7.37,.43,12.53-1.79,13.78-2.39,.14-.11,.39-.34,.69-.67,1.03-1.13,2.71-3.58,3.31-8.06,.32-2.34-1.52-4.48-3.31-5.97-1.06-.9-2.13-1.56-2.71-1.89-4.5-1.43-8.39-2.92-11.76-4.41-13.28-5.88-18.32-11.83-20.1-14.69-4.81-7-9.28-23.08,6.5-37.1,4.13-3.67,8.8-5.82,13.6-6.94v-12.74h14.47v12.02c10.84,1.13,19.91,5.27,21.63,6.1l-6.35,18.31c-2.47-1.17-9.91-3.24-15.28-4.11-5.35-.88-10.97-.74-14.47,2.17-.09,.06-.17,.13-.25,.2-4.59,4.08-4.26,6.99-4.15,7.94,.17,1.46,.84,2.72,.85,2.73l.57,.84c.33,.36,1.2,1.25,2.98,2.48,2.58,1.79,7.07,4.31,14.47,6.92,1.3,.46,2.7,.92,4.19,1.38l.68,.2,.62,.3c7.55,3.56,19.77,13.64,17.74,28.92Z"/>
    <path class="cls-1" d="M374.93,166s7.16,23.5,0,41.43h62.58v24.26s6.68,17.08,20.4,0l47.49-37.54s9.21-8.06,0-14.78l-50.14-39.46s-9.72-10.74-17.49,0l.09,26.61-62.93-.51Z"/>
  </g>
  <g>
    <rect class="cls-1" x="5" y="266.8" width="61.4" height="134.06" rx="9.82" ry="9.82"/>
    <path class="cls-1" d="M85.33,285.73v96.32l99.26,24.43s28.14,9.72,57.82-7.67l116.66-85.86s14.33-8.29,4.09-24.66c-10.23-16.37-29.68-4.09-29.68-4.09l-65.49,26.61s0,31.72-27.63,34.79c0,0-14.33,1.02-26.61-3.07l-45.03-9.21s-11.26-4.09-8.19-13.3,13.3-6.14,13.3-6.14l56.28,12.28s14.33,2.05,17.4-6.14c0,0,6.14-10.23-5.12-17.4l-68.56-34.79s-20.47-5.12-40.93,2.05l-47.58,15.86Z"/>
  </g>
</svg>