<?xml version="1.0" encoding="UTF-8"?>
<svg id="Layer_1" data-name="Layer 1" xmlns="http://www.w3.org/2000/svg" viewBox="0 0 512 512">
  <defs>
    <style>
      .cls-1 {
        fill-rule: evenodd;
      }

      .cls-1, .cls-2 {
        fill: #ff1d1d;
      }
    </style>
  </defs>
  <g>
    <path class="cls-2" d="M256.4,337c-5.3,0-9.61,4.3-9.61,9.61v53.65l-12.42-12.42c-3.75-3.75-9.83-3.75-13.58,0-3.75,3.75-3.75,9.83,0,13.58l28.81,28.81c3.75,3.75,9.83,3.75,13.58,0l28.81-28.75c3.75-3.75,3.75-9.83,0-13.58-3.75-3.75-9.83-3.75-13.58,0l-12.4,12.4v-53.7c0-5.3-4.3-9.61-9.61-9.61Z"/>
    <path class="cls-1" d="M445.27,25.34c34.77,0,62.95,28.19,62.95,62.95v83.94c0,34.77-28.18,62.95-62.95,62.95h-41.97v188.86c0,34.77-28.18,62.95-62.95,62.95H172.47c-34.77,0-62.95-28.18-62.95-62.95V235.18h-41.97c-34.77,0-62.95-28.19-62.95-62.95V88.29c0-34.77,28.19-62.95,62.95-62.95H445.27Zm20.98,146.89c0,11.59-9.39,20.98-20.98,20.98h-41.97v-41.97h20.98c11.59,0,20.98-9.4,20.98-20.98s-9.39-20.98-20.98-20.98H88.53c-11.59,0-20.98,9.4-20.98,20.98s9.4,20.98,20.98,20.98h20.98v41.97h-41.97c-11.59,0-20.98-9.4-20.98-20.98V88.29c0-11.59,9.4-20.98,20.98-20.98H445.27c11.59,0,20.98,9.4,20.98,20.98v83.94Zm-314.77-20.98V424.05c0,11.59,9.4,20.98,20.98,20.98h167.88c11.59,0,20.98-9.39,20.98-20.98V151.24H151.49Z"/>
  </g>
  <g>
    <path class="cls-2" d="M280.82,251.85c-1.73,12.99-9.98,17.92-10.91,18.44-.24,.13-2.49,1.37-6.19,2.43-.65,.19-1.1,.78-1.1,1.45v9.32c0,.84-.68,1.51-1.51,1.51h-8.31c-.84,0-1.51-.68-1.51-1.51v-7.81c0-.79-.61-1.45-1.39-1.51-5.6-.37-12.02-1.98-18.82-5.86-.68-.39-.94-1.24-.6-1.95l5.01-10.63c.36-.77,1.29-1.09,2.05-.7,4.68,2.4,10.31,3.24,13.75,3.45,5.77,.34,9.81-1.4,10.8-1.88,.11-.09,.3-.26,.54-.52,.81-.88,2.12-2.81,2.59-6.32,.25-1.84-1.19-3.51-2.59-4.67-.76-.64-1.51-1.12-1.99-1.4-.09-.06-.19-.1-.3-.13-3.46-1.11-6.45-2.25-9.05-3.4-10.4-4.61-14.35-9.27-15.74-11.51-3.77-5.48-7.27-18.08,5.09-29.06,2.91-2.59,6.17-4.21,9.53-5.15,.66-.18,1.12-.76,1.12-1.45v-7.31c0-.84,.68-1.51,1.51-1.51h8.31c.84,0,1.51,.68,1.51,1.51v6.56c0,.75,.55,1.4,1.29,1.5,6.39,.85,11.84,2.94,14.37,4.04,.73,.32,1.09,1.14,.83,1.89l-4.01,11.55c-.28,.79-1.14,1.21-1.93,.93-2.59-.91-7.11-2.1-10.55-2.66-4.19-.69-8.59-.58-11.33,1.7-.07,.05-.14,.1-.19,.16-3.6,3.2-3.33,5.47-3.25,6.22,.11,.92,.46,1.73,.61,2.02,.03,.07,.07,.13,.11,.19l.33,.48c.04,.06,.09,.12,.14,.18,.3,.32,.98,.98,2.26,1.86,2.02,1.4,5.54,3.37,11.33,5.42,1.02,.36,2.12,.72,3.28,1.08l.53,.16,.49,.23c5.92,2.79,15.49,10.69,13.9,22.65Z"/>
    <path class="cls-2" d="M256,163.5c-39.21,0-71,31.79-71,71s31.79,71,71,71,71-31.79,71-71-31.79-71-71-71Zm-.5,130c-32.58,0-59-26.42-59-59s26.42-59,59-59,59,26.42,59,59-26.42,59-59,59Z"/>
  </g>
</svg>